<?xml version="1.0" encoding="iso-8859-1"?>
<!-- Uploaded to: SVG Repo, www.svgrepo.com, Generator: SVG Repo Mixer Tools -->
<!DOCTYPE svg PUBLIC "-//W3C//DTD SVG 1.1//EN" "http://www.w3.org/Graphics/SVG/1.1/DTD/svg11.dtd">
<svg fill="#000000" height="800px" width="800px" version="1.1" id="Capa_1" xmlns="http://www.w3.org/2000/svg" xmlns:xlink="http://www.w3.org/1999/xlink" 
	 viewBox="0 0 297 297" xml:space="preserve">
<g>
	<path d="M35.355,19.086l-1.295,1.295c-2.654,2.654-2.654,6.957,0.001,9.613c1.326,1.326,3.066,1.99,4.806,1.99
		c1.739,0,3.479-0.664,4.808-1.992l1.293-1.293l1.295,1.295c1.327,1.326,3.067,1.99,4.807,1.99c1.739,0,3.479-0.664,4.807-1.99
		c2.654-2.656,2.654-6.959,0-9.615l-1.295-1.295l1.294-1.293c2.654-2.654,2.654-6.959-0.001-9.613c-2.653-2.654-6.957-2.654-9.613,0
		l-1.293,1.293l-1.293-1.293c-2.656-2.654-6.959-2.654-9.614,0c-2.654,2.654-2.654,6.959,0,9.613L35.355,19.086z"/>
	<path d="M38.621,89.401l-1.295-1.295l1.295-1.295c2.654-2.654,2.654-6.958-0.001-9.613c-2.653-2.653-6.958-2.654-9.613,0.001
		l-1.293,1.293l-1.294-1.293c-2.654-2.654-6.959-2.655-9.613-0.001c-2.655,2.655-2.655,6.959-0.001,9.613l1.295,1.295l-1.295,1.295
		c-2.654,2.654-2.654,6.958,0.001,9.613c1.327,1.327,3.067,1.99,4.807,1.99c1.739,0,3.479-0.663,4.807-1.991l1.294-1.293
		l1.293,1.293c1.328,1.328,3.067,1.991,4.808,1.991c1.739,0,3.479-0.663,4.806-1.99C41.275,96.359,41.275,92.056,38.621,89.401z"/>
	<path d="M278.9,70.852l1.295-1.295c2.654-2.654,2.654-6.958-0.001-9.613c-2.653-2.653-6.958-2.654-9.613,0.001l-1.293,1.293
		l-1.294-1.293c-2.654-2.654-6.959-2.655-9.613-0.001c-2.655,2.655-2.655,6.959-0.001,9.613l1.295,1.295l-1.295,1.295
		c-2.654,2.654-2.654,6.957,0.001,9.613c1.327,1.326,3.067,1.99,4.806,1.99c1.739,0,3.479-0.664,4.808-1.992l1.294-1.293
		l1.293,1.293c1.327,1.328,3.066,1.992,4.807,1.992c1.739,0,3.479-0.664,4.807-1.99c2.655-2.656,2.655-6.959,0.001-9.613
		L278.9,70.852z"/>
	<path d="M193.942,79.479c0-4.043,3.277-7.32,7.32-7.32s7.32,3.277,7.32,7.32v27.19h30.023c-1.438-16.212-3.996-34.657-7.171-50.779
		C223.62,16.192,214.877,0,201.262,0c-13.616,0-22.358,16.192-30.175,55.89c-3.175,16.122-5.731,34.567-7.169,50.779h30.023V79.479z
		"/>
	<path d="M105.671,79.479c0-4.043,3.277-7.32,7.321-7.32c4.043,0,7.32,3.277,7.32,7.32v27.19h30.022
		c-1.438-16.212-3.996-34.657-7.17-50.779C135.35,16.192,126.608,0,112.993,0C99.376,0,90.633,16.192,82.818,55.89
		c-3.175,16.122-5.733,34.567-7.169,50.779h30.023V79.479z"/>
	<path d="M269.287,120.787H44.967c-5.774,0-10.457,4.683-10.457,10.457c0,5.775,4.683,10.458,10.457,10.458h224.319
		c5.775,0,10.458-4.683,10.458-10.458C279.745,125.47,275.062,120.787,269.287,120.787z"/>
	<path d="M236.043,155.82H78.21c1.578,5.611,3.152,12.288,4.415,19.87h148.979C232.87,168.118,234.455,161.445,236.043,155.82z"/>
	<path d="M229.741,190.331H84.497c2.262,25.17,0.259,57.258-13.77,92.327c-1.289,3.223-0.895,6.873,1.051,9.747
		c1.945,2.873,5.189,4.595,8.659,4.595h153.38c3.471,0,6.714-1.722,8.659-4.595c1.945-2.874,2.34-6.524,1.051-9.747
		C229.165,246.754,227.636,214.115,229.741,190.331z"/>
</g>
</svg>